<svg version="1.1" id="图层_1" x="0px" y="0px" width="181.078px" height="147.035px" viewBox="0 0 181.078 147.035" enable-background="new 0 0 181.078 147.035" xml:space="preserve" xmlns="http://www.w3.org/2000/svg" xmlns:xlink="http://www.w3.org/1999/xlink" xmlns:xml="http://www.w3.org/XML/1998/namespace"><defs class="defs"><linearGradient id="linearGradient62b66240782b1f77b07991496464ac94" class="linearGradient1" gradientTransform="translate(0.5,0.5) rotate(270) translate(-0.5,-0.5)" x1="50%" y1="0%" x2="50%" y2="100%"><stop id="stop1" offset="0%" class="linearGradientColor1" stop-color="#7323fd"></stop><stop id="stop2" offset="100%" class="linearGradientColor2" stop-color="#29b5f2"></stop></linearGradient></defs>
  <path fill="url(#linearGradient62b66240782b1f77b07991496464ac94)" d="M167.799,67.119c-3.139,0-6.036,1.207-8.45,2.896L136.896,47.08c4.104-4.346,6.519-10.141,6.519-16.418
	c0-13.279-10.865-24.145-24.144-24.145c-11.59,0-21.488,8.451-23.661,19.315l-53.116-7.968c0-0.482,0-0.724,0-1.207
	C42.493,7.484,35.009,0,25.833,0C16.659,0,9.175,7.484,9.175,16.658c0,8.451,6.277,15.453,14.486,16.418l-2.656,53.6
	C9.416,86.676,0,96.092,0,107.922c0,11.59,9.416,21.246,21.246,21.246c9.899,0,18.35-6.76,20.522-16.176l78.709,14.728
	c0,0.725-0.241,1.448-0.241,2.173c0,9.416,7.726,17.143,17.142,17.143s17.142-7.727,17.142-17.143
	c0-6.035-3.139-11.105-7.726-14.244l15.693-23.178c1.69,0.724,3.38,0.965,5.312,0.965c7.243,0,13.279-6.035,13.279-13.279
	C181.078,73.155,175.283,67.119,167.799,67.119z M125.548,118.304l-23.661-20.039c1.932-2.655,3.139-6.036,3.139-9.657
	c0-0.242,0-0.242,0-0.483l23.178-2.414l5.07,28.007C130.376,114.441,127.479,116.131,125.548,118.304z M156.451,73.879
	l-30.421-13.52l-1.207-6.037c3.863-0.965,7.484-2.896,10.382-5.311l22.453,22.936C157.176,72.431,156.693,73.155,156.451,73.879z
	 M119.512,55.047c0.966,0,2.173,0,3.139-0.241l0.725,4.587l-14.245-6.519v-0.241C112.269,54.082,115.648,55.047,119.512,55.047z
	 M106.957,51.426l-0.242,0.241l-7.726-3.38l2.173-1.69C102.853,48.528,104.784,50.219,106.957,51.426z M105.75,53.84L95.368,73.396
	c-1.932-0.966-4.346-1.449-6.761-1.449c-3.622,0-7.243,1.208-9.899,3.381l-5.553-6.52l23.902-18.832L105.75,53.84z M71.466,67.119
	l-33.802-38.63c1.207-1.208,2.173-2.415,2.897-3.863L94.402,48.77L71.466,67.119z M35.974,30.18l33.561,38.389L37.181,94.16
	c-3.379-3.863-8.209-6.52-13.52-7.002l2.655-53.6C29.938,33.318,33.318,32.111,35.974,30.18z M38.63,95.85l32.353-25.592
	l5.795,6.519c-2.897,2.897-4.829,7.002-4.829,11.589c0,0.725,0,1.449,0.242,2.174l-31.146,9.898
	C40.562,98.988,39.837,97.299,38.63,95.85z M104.784,85.71c-0.725-4.587-3.622-8.692-7.485-11.106l10.624-19.557l15.935,7.244
	l3.863,21.246L104.784,85.71z M126.513,63.256l28.731,12.797c-0.482,1.448-0.725,2.896-0.725,4.346c0,0,0,0,0,0.241l-24.385,2.414
	L126.513,63.256z M95.368,28.489c0,0.724,0,1.448,0,2.414c0,5.312,1.689,10.141,4.587,14.003l-3.139,2.415L41.527,22.453
	c0.241-0.725,0.483-1.449,0.483-1.932L95.368,28.489z M42.493,110.819c0-0.966,0.241-1.69,0.241-2.655
	c0-1.69-0.241-3.622-0.724-5.313l30.903-9.657c1.932,6.761,8.209,11.831,15.693,11.831c4.588,0,8.691-1.932,11.589-4.83
	l23.661,20.04c-1.207,1.69-2.173,3.38-2.656,5.554L42.493,110.819z M144.862,114.682c-2.173-0.965-4.587-1.689-7.243-1.689
	c-0.724,0-1.207,0-1.932,0l-5.07-27.766l24.145-2.414c0.724,3.621,2.655,6.52,5.553,8.45L144.862,114.682z" class="color c1"></path>
</svg>